<?xml version="1.0" encoding="UTF-8" ?>
<svg
    xmlns="http://www.w3.org/2000/svg"
    version="1.1"
    width="40"
    height="40"
    viewBox="0 0 40 40"
>
  <rect
      style="fill:#000000;fill-opacity:1;stroke:none;"
      width="36"
      height="36"
      x="2"
      y="2"
      rx="1.65"
  />
  <g transform="matrix(0.14166667,0,0,0.14166667,27.185659,27.484836)">
    <linearGradient
        gradientTransform="matrix(1,0,0,-1,0,61)"
        y2="15.3332"
        x2="44.306801"
        y1="-13.0143"
        x1="15.9594"
        gradientUnits="userSpaceOnUse"
        id="XMLID_3_"
    >
      <stop style="stop-color:#0095D5" offset="9.677000e-02" />
      <stop style="stop-color:#238AD9" offset="0.3007" />
      <stop style="stop-color:#557BDE" offset="0.6211" />
      <stop style="stop-color:#7472E2" offset="0.8643" />
      <stop style="stop-color:#806EE3" offset="1" />
    </linearGradient>
    <polygon points="60,60 0,60 30.1,29.9 " style="fill:url(#XMLID_3_)" id="XMLID_2_" />
    <linearGradient
        gradientTransform="matrix(1,0,0,-1,0,61)"
        y2="65.404999"
        x2="20.673401"
        y1="48.940899"
        x1="4.2091999"
        gradientUnits="userSpaceOnUse"
        id="SVGID_1_"
    >
      <stop style="stop-color:#0095D5" offset="0.1183" />
      <stop style="stop-color:#3C83DC" offset="0.4178" />
      <stop style="stop-color:#6D74E1" offset="0.6962" />
      <stop style="stop-color:#806EE3" offset="0.8333" />
    </linearGradient>
    <polygon points="0,32.5 0,0 30.1,0 " style="fill:url(#SVGID_1_)" />
    <linearGradient
        gradientTransform="matrix(1,0,0,-1,0,61)"
        y2="61.669399"
        x2="45.731499"
        y1="5.8362002"
        x1="-10.1017"
        gradientUnits="userSpaceOnUse"
        id="SVGID_2_"
    >
      <stop style="stop-color:#C757BC" offset="0.1075" />
      <stop style="stop-color:#D0609A" offset="0.2138" />
      <stop style="stop-color:#E1725C" offset="0.4254" />
      <stop style="stop-color:#EE7E2F" offset="0.6048" />
      <stop style="stop-color:#F58613" offset="0.743" />
      <stop style="stop-color:#F88909" offset="0.8232" />
    </linearGradient>
    <polygon points="30.1,0 0,31.7 0,60 30.1,29.9 60,0 " style="fill:url(#SVGID_2_)" />
  </g>
  <g style="fill:#000000;fill-opacity:1;stroke:none" transform="translate(0.49790849,0.26516502)">
    <path
        d="m 5.0880854,7.9835282 q -0.5653333,0 -0.9013333,-0.3093334 -0.336,-0.3146666 -0.336,-0.8426666 V 5.1355281 q 0,-0.528 0.336,-0.8373334 0.336,-0.3146666 0.9013333,-0.3146666 0.368,0 0.6453334,0.144 0.2826667,0.1386666 0.4373333,0.4 0.1546667,0.2613333 0.1546667,0.608 h -0.672 q 0,-0.272 -0.1493334,-0.4213333 -0.144,-0.1493334 -0.416,-0.1493334 -0.272,0 -0.4213333,0.1493334 -0.1493333,0.144 -0.1493333,0.416 v 1.7013334 q 0,0.272 0.1493333,0.4213333 0.1493333,0.1493333 0.4213333,0.1493333 0.2666667,0 0.416,-0.1493333 Q 5.6534188,7.1035282 5.6534188,6.8315282 V 6.4368615 H 4.9920854 v -0.576 h 1.3333334 v 0.9706667 q 0,0.3466666 -0.1546667,0.608 Q 6.0160855,7.7008615 5.7334188,7.8448615 5.4560854,7.9835282 5.0880854,7.9835282 Z"
        style="fill:#ffffff;fill-opacity:1"
    />
    <path
        d="M 9.4700022,7.9301949 H 7.1340021 V 4.0368614 h 2.3360001 v 0.576 h -1.68 v 1.0186667 h 1.4933333 v 0.576 H 7.7900022 v 1.1466667 h 1.68 z"
        style="fill:#ffffff;fill-opacity:1"
    />
    <path
        d="m 11.798586,7.9301949 h -0.672 V 4.6555281 H 10.107919 V 4.0368614 h 2.709333 v 0.6186667 h -1.018666 z"
        style="fill:#ffffff;fill-opacity:1"
    />
    <path
        d="m 14.671169,7.9835282 q -0.597334,0 -0.949334,-0.2933334 -0.352,-0.2986666 -0.357333,-0.8053333 h 0.666667 q 0,0.24 0.170666,0.3786667 0.176,0.1386666 0.474667,0.1386666 0.288,0 0.448,-0.1333333 0.165333,-0.1386667 0.165333,-0.3733333 0,-0.1973334 -0.117333,-0.3413334 -0.117333,-0.144 -0.325333,-0.2026667 l -0.448,-0.1226666 q -0.453334,-0.1173334 -0.704,-0.4213334 -0.250667,-0.304 -0.250667,-0.736 0,-0.496 0.330667,-0.7893334 0.330666,-0.2986666 0.890666,-0.2986666 0.56,0 0.890667,0.2933333 0.336,0.288 0.341333,0.7786667 h -0.666666 q 0,-0.2293333 -0.149334,-0.3573333 -0.149333,-0.1333334 -0.421333,-0.1333334 -0.261333,0 -0.405333,0.1226667 -0.144,0.1226667 -0.144,0.3466667 0,0.2026666 0.112,0.3466666 0.112,0.144 0.314666,0.1973334 l 0.464,0.128 q 0.458667,0.1226667 0.704,0.4213333 0.250667,0.2986667 0.250667,0.7413334 0,0.3306667 -0.16,0.5866667 -0.16,0.2506666 -0.453333,0.3893333 -0.288,0.1386667 -0.672,0.1386667 z"
        style="fill:#ffffff;fill-opacity:1"
    />
    <path
        d="m 18.194419,7.9301949 h -0.672 V 4.6555281 H 16.503752 V 4.0368614 h 2.709334 v 0.6186667 h -1.018667 z"
        style="fill:#ffffff;fill-opacity:1"
    />
    <path
        d="m 20.325669,7.9301949 h -0.682666 l 0.981333,-3.8933335 h 0.858667 l 0.986666,3.8933335 H 21.787003 L 21.573669,6.9861948 h -1.034666 z m 0.336,-1.4880001 h 0.789334 L 21.216336,5.3968614 q -0.133333,-0.6026666 -0.16,-0.7786666 -0.02667,0.1813333 -0.16,0.7733333 z"
        style="fill:#ffffff;fill-opacity:1"
    />
    <path
        d="m 24.590252,7.9301949 h -0.672 V 4.6555281 H 22.899585 V 4.0368614 h 2.709334 v 0.6186667 h -1.018667 z"
        style="fill:#ffffff;fill-opacity:1"
    />
    <path
        d="m 28.57217,7.9301949 h -2.24 V 7.3435282 h 0.784 V 4.6235281 h -0.784 V 4.0368614 h 2.24 v 0.5866667 h -0.784 v 2.7200001 h 0.784 z"
        style="fill:#ffffff;fill-opacity:1"
    />
    <path
        d="m 30.671419,7.9835282 q -0.565333,0 -0.901333,-0.3093334 -0.336,-0.3146666 -0.336,-0.8426666 V 5.1355281 q 0,-0.528 0.336,-0.8373334 0.336,-0.3146666 0.901333,-0.3146666 0.368,0 0.645334,0.144 0.282666,0.1386666 0.437333,0.4 0.154667,0.2613333 0.154667,0.608 h -0.672 q 0,-0.272 -0.149334,-0.4213333 -0.144,-0.1493334 -0.416,-0.1493334 -0.272,0 -0.421333,0.1493334 -0.149333,0.144 -0.149333,0.416 v 1.7013334 q 0,0.272 0.149333,0.4213333 0.149333,0.1493333 0.421333,0.1493333 0.266667,0 0.416,-0.1493333 0.149334,-0.1493333 0.149334,-0.4213333 h 0.672 q 0,0.3466666 -0.154667,0.608 -0.154667,0.2613333 -0.437333,0.4053333 -0.277334,0.1386667 -0.645334,0.1386667 z"
        style="fill:#ffffff;fill-opacity:1"
    />
    <path
        d="M 6.3360855,13.690195 H 4.0160854 V 9.7968618 h 0.6666667 v 3.2746672 h 1.6533334 z"
        style="fill:#ffffff;fill-opacity:1"
    />
    <path
        d="M 7.0646688,13.690195 V 9.7968618 h 1.1573334 q 0.3893333,0 0.6826667,0.1493333 0.2933333,0.1493329 0.4533333,0.4266669 0.16,0.277333 0.16,0.64 v 1.456 q 0,0.362667 -0.16,0.64 -0.16,0.277333 -0.4533333,0.432 -0.2933334,0.149333 -0.6826667,0.149333 z m 1.1573334,-0.613333 q 0.288,0 0.4586667,-0.165333 0.1706666,-0.165334 0.1706666,-0.442667 v -1.456 q 0,-0.277333 -0.1706666,-0.437334 Q 8.5100022,10.410195 8.2220022,10.410195 H 7.7313355 v 2.666667 z"
        style="fill:#ffffff;fill-opacity:1"
    />
    <path
        d="m 11.483919,13.743529 q -0.565333,0 -0.901333,-0.309334 -0.336,-0.314666 -0.336,-0.842666 v -1.696 q 0,-0.528001 0.336,-0.837334 0.336,-0.3146665 0.901333,-0.3146665 0.368,0 0.645333,0.144 0.282667,0.1386665 0.437334,0.3999995 0.154666,0.261334 0.154666,0.608001 h -0.672 q 0,-0.272001 -0.149333,-0.421334 -0.144,-0.149333 -0.416,-0.149333 -0.272,0 -0.421333,0.149333 -0.149334,0.144 -0.149334,0.416 v 1.701334 q 0,0.272 0.149334,0.421333 0.149333,0.149333 0.421333,0.149333 0.266667,0 0.416,-0.149333 0.149333,-0.149333 0.149333,-0.421333 h 0.672 q 0,0.346666 -0.154666,0.608 -0.154667,0.261333 -0.437334,0.405333 -0.277333,0.138667 -0.645333,0.138667 z"
        style="fill:#ffffff;fill-opacity:1"
    />
    <path
        d="M 4.3360854,19.450196 H 3.6534187 l 0.9813334,-3.893334 h 0.8586667 l 0.9866667,3.893334 H 5.7974188 l -0.2133334,-0.944 H 4.5494188 Z m 0.336,-1.488 H 5.4614188 L 5.2267521,16.916862 q -0.1333333,-0.602666 -0.16,-0.778666 -0.026667,0.181333 -0.16,0.773333 z"
        style="fill:#ffffff;fill-opacity:1"
    />
    <path
        d="M 9.5340022,19.450196 H 7.2140021 v -3.893334 h 0.6666667 v 3.274667 h 1.6533334 z"
        style="fill:#ffffff;fill-opacity:1"
    />
    <path
        d="m 11.462586,19.503529 q -0.56,0 -0.890667,-0.309333 -0.325333,-0.314667 -0.325333,-0.842667 v -1.696 q 0,-0.528 0.325333,-0.837333 0.330667,-0.314667 0.890667,-0.314667 0.56,0 0.885333,0.314667 0.330667,0.309333 0.330667,0.832 v 1.701333 q 0,0.528 -0.330667,0.842667 -0.325333,0.309333 -0.885333,0.309333 z m 0,-0.581333 q 0.272,0 0.410666,-0.144 0.138667,-0.149334 0.138667,-0.426667 v -1.696 q 0,-0.277333 -0.138667,-0.421333 -0.138666,-0.149334 -0.410666,-0.149334 -0.272,0 -0.410667,0.149334 -0.138667,0.144 -0.138667,0.421333 v 1.696 q 0,0.277333 0.138667,0.426667 0.144,0.144 0.410667,0.144 z"
        style="fill:#ffffff;fill-opacity:1"
    />
    <path
        d="m 13.929835,19.450196 h -0.682666 l 0.981333,-3.893334 h 0.858667 l 0.986666,3.893334 h -0.682666 l -0.213334,-0.944 h -1.034666 z m 0.336,-1.488 h 0.789334 l -0.234667,-1.045334 q -0.133333,-0.602666 -0.16,-0.778666 -0.02667,0.181333 -0.16,0.773333 z"
        style="fill:#ffffff;fill-opacity:1"

    />
    <path
        d="m 16.658419,19.450196 v -3.893334 h 1.157333 q 0.389334,0 0.682667,0.149334 0.293333,0.149333 0.453333,0.426666 0.16,0.277334 0.16,0.64 v 1.456 q 0,0.362667 -0.16,0.64 -0.16,0.277334 -0.453333,0.432 -0.293333,0.149334 -0.682667,0.149334 z m 1.157333,-0.613334 q 0.288,0 0.458667,-0.165333 0.170667,-0.165333 0.170667,-0.442667 v -1.456 q 0,-0.277333 -0.170667,-0.437333 -0.170667,-0.165333 -0.458667,-0.165333 h -0.490666 v 2.666666 z"
        style="fill:#ffffff;fill-opacity:1"
    />
    <path
        d="m 3.8720854,25.210196 v -3.893333 h 1.232 q 0.384,0 0.6720001,0.144 0.2933333,0.144 0.448,0.405333 0.16,0.261333 0.16,0.608 0,0.384 -0.192,0.677333 -0.192,0.293334 -0.528,0.416 l 0.7733333,1.642667 H 5.6907521 L 5.0134188,23.663529 H 4.5387521 v 1.546667 z m 1.232,-2.128 q 0.2773334,0 0.4373334,-0.154667 0.1653333,-0.16 0.1653333,-0.432 0,-0.277333 -0.1653333,-0.437333 -0.16,-0.16 -0.4373334,-0.16 H 4.5387521 v 1.184 z"
        style="fill:#ffffff;fill-opacity:1"
    />
    <path
        d="M 9.4700022,25.210196 H 7.1340021 v -3.893333 h 2.3360001 v 0.576 h -1.68 v 1.018666 h 1.4933333 v 0.576 H 7.7900022 v 1.146667 h 1.68 z"
        style="fill:#ffffff;fill-opacity:1"
    />
    <path
        d="m 11.798586,25.210196 h -0.672 v -3.274667 h -1.018667 v -0.618666 h 2.709333 v 0.618666 h -1.018666 z"
        style="fill:#ffffff;fill-opacity:1"
    />
    <path
        d="m 14.660502,25.263529 q -0.570667,0 -0.896,-0.309333 -0.32,-0.309333 -0.32,-0.853333 v -2.784 h 0.672 v 2.778666 q 0,0.277334 0.138667,0.432 0.138666,0.154667 0.405333,0.154667 0.261333,0 0.4,-0.154667 0.144,-0.154666 0.144,-0.432 v -2.778666 h 0.672 v 2.784 q 0,0.544 -0.325333,0.853333 -0.32,0.309333 -0.890667,0.309333 z"
        style="fill:#ffffff;fill-opacity:1"
    />
    <path
        d="m 16.663752,25.210196 v -3.893333 h 1.232 q 0.384,0 0.672,0.144 0.293334,0.144 0.448,0.405333 0.16,0.261333 0.16,0.608 0,0.384 -0.192,0.677333 -0.192,0.293334 -0.528,0.416 l 0.773334,1.642667 h -0.746667 l -0.677333,-1.546667 h -0.474667 v 1.546667 z m 1.232,-2.128 q 0.277334,0 0.437334,-0.154667 0.165333,-0.16 0.165333,-0.432 0,-0.277333 -0.165333,-0.437333 -0.16,-0.16 -0.437334,-0.16 h -0.565333 v 1.184 z"
        style="fill:#ffffff;fill-opacity:1"
    />
    <path
        d="m 19.840336,25.210196 v -3.893333 h 0.864704 l 1.147288,3.146666 q -0.07912,-0.810666 -0.07912,-1.301333 v -1.845333 h 0.64429 v 3.893333 H 21.55279 l -1.135983,-3.146667 q 0.06782,0.752 0.06782,1.242667 v 1.904 z"
        style="fill:#ffffff;fill-opacity:1;stroke-width:1.0294106"
    />
  </g>
</svg>
