<?xml version="1.0" encoding="UTF-8" standalone="no"?>
<svg
    xmlns="http://www.w3.org/2000/svg"
    version="1.1"
    width="16"
    height="16"
    viewBox="0 0 40 40"
    xml:space="preserve"
>
<g transform="translate(0,-619.05499)">
	<path
      d="m 14.950261,649.57164 c 0,0 -1.469435,0.85528 1.046947,1.14388 3.049004,0.3481 4.60704,0.29797 7.966016,-0.33695 0,0 0.884895,0.55356 2.118569,1.03299 -7.532367,3.22714 -17.0473153,-0.18699 -11.131532,-1.83992 z"
      style="clip-rule:evenodd;fill:#0074bd;fill-rule:evenodd;stroke-width:0.08511062"
  />
  <path
      d="m 14.029369,645.35969 c 0,0 -1.648343,1.22039 0.869915,1.48066 3.257271,0.33627 5.828629,0.36385 10.280683,-0.49296 0,0 0.614327,0.62404 1.581776,0.96508 -9.10564,2.66345 -19.2475051,0.20953 -12.732374,-1.95278 z"
      style="clip-rule:evenodd;fill:#0074bd;fill-rule:evenodd;stroke-width:0.08511062"
  />
  <path
      d="m 21.788308,638.21387 c 1.856944,2.13757 -0.486921,4.05954 -0.486921,4.05954 0,0 4.712317,-2.43221 2.548637,-5.47943 -2.021549,-2.8404 -3.571414,-4.25137 4.819221,-9.11739 8.6e-5,0 -13.171212,3.28876 -6.880937,10.53728 z"
      style="clip-rule:evenodd;fill:#ea2d2e;fill-rule:evenodd;stroke-width:0.08511062"
  />
  <path
      d="m 31.750331,652.68754 c 0,0 1.087801,0.89672 -1.198096,1.5902 -4.346691,1.31658 -18.094863,1.7137 -21.9134373,0.0527 -1.3717289,-0.59748 1.2018484,-1.4256 2.0115873,-1.6005 0.844299,-0.18265 1.326372,-0.1493 1.326372,-0.1493 -1.526631,-1.07502 -9.867299,2.11135 -4.2361292,3.02518 15.3564232,2.48915 27.9924542,-1.12116 24.0097032,-2.91827 z"
      style="clip-rule:evenodd;fill:#0074bd;fill-rule:evenodd;stroke-width:0.08511062"
  />
  <path
      d="m 15.657447,640.99504 c 0,0 -6.9922611,1.66127 -2.476033,2.26505 1.907493,0.25525 5.707773,0.19652 9.250247,-0.10068 2.894264,-0.24291 5.798842,-0.76243 5.798842,-0.76243 0,0 -1.019798,0.43746 -1.758134,0.94133 -7.101966,1.86791 -20.8190748,0.998 -16.8695214,-0.91171 3.3386344,-1.61515 6.0545994,-1.43156 6.0545994,-1.43156 z"
      style="clip-rule:evenodd;fill:#0074bd;fill-rule:evenodd;stroke-width:0.08511062"
  />
  <path
      d="m 28.201562,648.00612 c 7.218909,-3.75023 3.880788,-7.35459 1.55097,-6.86912 -0.569731,0.1189 -0.825319,0.22189 -0.825319,0.22189 0,0 0.212268,-0.33253 0.616461,-0.47559 4.609163,-1.61966 8.153085,4.7786 -1.486376,7.31261 -8.6e-5,0 0.110819,-0.10039 0.144264,-0.18979 z"
      style="clip-rule:evenodd;fill:#0074bd;fill-rule:evenodd;stroke-width:0.08511062"
  />
  <path
      d="m 23.85011,619.81764 c 0,0 3.997054,3.99935 -3.792272,10.14748 -6.246526,4.93379 -1.424239,7.74584 -0.0019,10.96038 -3.64657,-3.28977 -6.321252,-6.18618 -4.527208,-8.88146 2.634515,-3.95586 9.934026,-5.87441 8.32169,-12.2264 z"
      style="clip-rule:evenodd;fill:#ea2d2e;fill-rule:evenodd;stroke-width:0.08511062"
  />
  <path
      d="m 16.367186,658.17164 c 6.927753,0.44292 17.569042,-0.24648 17.820887,-3.52486 0,0 -0.484111,1.24279 -5.725905,2.22888 -5.913565,1.11334 -13.208914,0.9837 -17.53415,0.26954 0,0 0.886086,0.7334 5.439168,1.02644 z"
      style="clip-rule:evenodd;fill:#0074bd;fill-rule:evenodd;stroke-width:0.08511062"
  />
</g>
</svg>
